<?xml version="1.0" encoding="utf-8"?>
<!-- Generator: Adobe Illustrator 16.0.0, SVG Export Plug-In . SVG Version: 6.00 Build 0)  -->
<!DOCTYPE svg PUBLIC "-//W3C//DTD SVG 1.1//EN" "http://www.w3.org/Graphics/SVG/1.1/DTD/svg11.dtd">
<svg version="1.1" id="Layer_1" xmlns="http://www.w3.org/2000/svg" xmlns:xlink="http://www.w3.org/1999/xlink" x="0px" y="0px"
	 width="547.968px" height="170.731px" viewBox="0 0 547.968 170.731" enable-background="new 0 0 547.968 170.731"
	 xml:space="preserve">
<path fill="#B53026" d="M116.615,79.472c0-0.482-0.128-0.967-0.405-1.395l-16.138-24.846c-0.246-0.379-0.587-0.675-0.978-0.876
	l0.002-0.003c-0.355-0.183-0.754-0.288-1.167-0.288H66.904H65.91h-2.565l0,0H31.39c-0.413,0-0.81,0.105-1.166,0.288l0.004,0.007
	c-0.386,0.2-0.724,0.491-0.969,0.866L12.866,78.327c-0.23,0.354-0.361,0.746-0.4,1.145h0.013c-0.071,0.709,0.151,1.434,0.656,1.986
	l49.692,54.303c0.463,0.507,1.112,0.797,1.795,0.822l0.003,0.01l0.003-0.009c0,0,0,0,0,0l-0.003,0.009c0.002,0,0.004,0,0.007,0
	c0.014,0,0.027-0.005,0.041-0.005c0.015,0,0.028,0.005,0.042,0.005l-0.002-0.009c0.69-0.023,1.345-0.319,1.811-0.832l49.436-54.56
	C116.398,80.708,116.615,80.092,116.615,79.472h-0.002H116.615z"/>
<path fill="#9E2921" d="M116.615,79.472c0-0.482-0.128-0.967-0.405-1.395l-16.138-24.846c-0.247-0.381-0.589-0.677-0.981-0.878
	L81.579,79.472H116.615z"/>
<path fill="#A92B23" d="M99.097,52.352c-0.355-0.183-0.754-0.288-1.167-0.288H65.91l15.675,27.408L99.097,52.352z"/>
<path fill="#AF2C25" d="M81.579,79.472L65.904,52.064h-2.559L47.463,79.472H81.579z"/>
<path fill="#B53026" d="M63.408,52.064H31.39c-0.413,0-0.81,0.105-1.166,0.288l17.303,27.119L63.408,52.064z"/>
<path fill="#BE3227" d="M30.238,52.353c-0.39,0.2-0.731,0.494-0.979,0.873L12.866,78.327c-0.23,0.354-0.361,0.746-0.4,1.145h35.076
	L30.238,52.353z"/>
<path fill="#92261E" d="M81.58,79.473l-16.954,57.12c0.002,0,0.004,0,0.007,0c0.721-0.002,1.408-0.308,1.892-0.841l49.436-54.56
	c0.438-0.484,0.655-1.101,0.655-1.72H81.58z"/>
<path fill="#A92B23" d="M47.463,79.472l17.162,57.121l16.954-57.121H47.463z"/>
<path fill="#B53026" d="M12.479,79.472c-0.071,0.709,0.151,1.434,0.656,1.986l49.692,54.303c0.485,0.53,1.17,0.832,1.889,0.832
	L47.554,79.472H12.479z"/>
<g>
	<path fill="#156734" d="M70.437,139.902c-0.093,0-0.186-0.026-0.266-0.077c-0.134-0.084-0.22-0.227-0.232-0.384
		c-0.046-0.594,0.16-1.185,0.567-1.62l31.957-34.211c0.399-0.428,0.966-0.673,1.554-0.673c0.261,0,0.514,0.2,0.534,0.461
		l1.748,22.239c0.017,0.22-0.112,0.426-0.317,0.505l-35.364,13.726C70.56,139.892,70.498,139.902,70.437,139.902z"/>
</g>
<g>
	<path fill="#0F8341" d="M58.643,139.902c-0.061,0-0.123-0.011-0.181-0.034l-35.363-13.726c-0.206-0.079-0.334-0.285-0.317-0.505
		l1.746-22.239c0.02-0.256,0.231-0.455,0.488-0.461c0,0,0.001,0,0.002,0c0.634,0,1.201,0.246,1.6,0.674l31.957,34.211
		c0.407,0.435,0.613,1.025,0.567,1.619c-0.012,0.157-0.099,0.3-0.232,0.384C58.829,139.876,58.736,139.902,58.643,139.902z"/>
</g>
<g>
	<path fill="#3D3D3D" d="M156.073,56.331h11.02v9.607h0.283c6.075-7.064,14.128-11.302,23.735-11.302
		c20.769,0,34.755,14.693,34.755,34.755c0,19.779-14.552,34.755-33.06,34.755c-11.867,0-21.333-5.934-25.43-13.422h-0.283v43.938
		h-11.02V56.331z M190.545,113.973c14.27,0,23.453-10.736,23.453-24.582s-9.183-24.583-23.453-24.583s-23.453,10.737-23.453,24.583
		S176.276,113.973,190.545,113.973z"/>
	<path fill="#3D3D3D" d="M290.854,110.724h-0.282c-4.098,7.488-13.563,13.422-25.431,13.422c-18.508,0-33.06-14.976-33.06-34.755
		c0-20.062,13.987-34.755,34.755-34.755c9.606,0,17.66,4.238,23.735,11.302h0.282V15.642h11.021V122.45h-11.021V110.724z
		 M267.401,64.808c-14.27,0-23.453,10.737-23.453,24.583s9.183,24.582,23.453,24.582c14.27,0,23.453-10.736,23.453-24.582
		S281.671,64.808,267.401,64.808z"/>
	<path fill="#3D3D3D" d="M335.779,86.848l-23.735-30.517h14.41l17.52,23.735l16.529-23.735h13.422l-22.746,30.517l27.268,35.603
		h-14.553l-20.908-28.538l-20.628,28.538h-13.704L335.779,86.848z"/>
	<path fill="#3D3D3D" d="M397.236,109.734c3.814,0,6.781,2.967,6.781,6.782c0,3.814-2.967,6.781-6.781,6.781
		c-3.815,0-6.782-2.967-6.782-6.781C390.454,112.701,393.421,109.734,397.236,109.734z"/>
	<path fill="#3D3D3D" d="M419.841,75.545c0-4.804-0.707-14.976-0.707-18.367h8.477c0.142,4.804,0.283,10.172,0.565,11.444
		c4.238-7.629,11.021-13.139,20.769-13.139c1.695,0,3.249,0.283,4.944,0.707l-0.989,8.335c-1.271-0.424-2.401-0.565-3.249-0.565
		c-14.693,0-21.333,10.172-21.333,22.888v35.603h-8.477V75.545z"/>
	<path fill="#3D3D3D" d="M465.049,15.642h8.478v52.98h0.281c5.229-9.042,16.389-13.139,26.137-13.139
		c20.062,0,34.332,14.411,34.332,34.332c0,19.92-14.27,34.331-34.332,34.331c-9.748,0-20.908-4.097-26.137-13.14h-0.281v11.444
		h-8.478V15.642z M499.944,116.517c15.965,0,25.855-12.009,25.855-26.702s-9.891-26.702-25.855-26.702
		c-15.398,0-27.266,12.009-27.266,26.702S484.546,116.517,499.944,116.517z"/>
</g>
</svg>
